<?xml version="1.0" encoding="UTF-8"?>
<!DOCTYPE svg PUBLIC "-//W3C//DTD SVG 1.1//EN" "http://www.w3.org/Graphics/SVG/1.1/DTD/svg11.dtd">
<!-- Creator: CorelDRAW 2019 (64-Bit Evaluation Version) -->
<svg xmlns="http://www.w3.org/2000/svg" xml:space="preserve" width="811px" height="456px" version="1.1" style="shape-rendering:geometricPrecision; text-rendering:geometricPrecision; image-rendering:optimizeQuality; fill-rule:evenodd; clip-rule:evenodd"
viewBox="0 0 811 456.19"
 xmlns:xlink="http://www.w3.org/1999/xlink">
 <defs>
  <style type="text/css">
   <![CDATA[
    .str0 {stroke:#373435;stroke-width:0.36;stroke-miterlimit:22.9256}
    .fil0 {fill:none}
    .fil10 {fill:#6B809B}
    .fil7 {fill:#4470B5}
    .fil4 {fill:#4059A5}
    .fil9 {fill:#2D3B60}
    .fil8 {fill:#2D3B60}
    .fil3 {fill:#2F3E65}
    .fil2 {fill:#35437E}
    .fil6 {fill:#36417F}
    .fil1 {fill:#36417F}
    .fil5 {fill:#374182}
   ]]>
  </style>
 </defs>
 <g id="Layer_x0020_1">
  <metadata id="CorelCorpID_0Corel-Layer"/>
  <g id="_2761332371008">
   <rect class="fil0 str0" x="333.15" y="105.61" width="63.36" height="253.44" rx="30.8" ry="35.99"/>
   <rect class="fil0 str0" transform="matrix(-0.00732484 -0.961529 -0.803311 0.00840224 515.859 167.364)" width="65.89" height="225.56" rx="32.03" ry="32.03"/>
   <rect class="fil0 str0" transform="matrix(-0.0060699 -0.961529 -0.665683 0.00840224 484.14 250.365)" width="65.89" height="225.56" rx="32.03" ry="32.03"/>
   <path class="fil0 str0" d="M391.06 328.54c19.69,-107.52 -173.15,-68.66 -140.33,-233.95"/>
   <path class="fil1 str0" d="M333.15 243.02l0 85.23c0,16.94 13.86,30.8 30.8,30.8l1.76 0c16.94,0 30.8,-13.86 30.8,-30.8l0 -76.78 -31.72 0.4c-16.94,0.22 -30.89,-13.47 -31,-30.41l-0.01 -1.76c-0.1,-16.94 13.67,-30.97 30.61,-31.19l32.12 -0.4 0 -7.66c-20.72,0.54 -42.53,1.46 -63.36,-2.82l0 65.39z"/>
   <path class="fil2 str0" d="M250.22 97.26c-17.13,91.91 36.66,119.58 82.93,145.76l0 -65.39c-32.73,-6.73 -63.05,-26.31 -82.93,-80.37z"/>
   <path class="fil3 str0" d="M250.22 97.26c19.88,54.06 50.2,73.64 82.93,80.37l0 -41.22c0,-5.67 1.56,-11 4.26,-15.58 -41.22,23.75 -68.31,-11.35 -86.99,-24.61 -0.07,0.35 -0.14,0.7 -0.2,1.04z"/>
   <path class="fil4 str0" d="M334.43 138.46c0.13,16.94 14.1,30.65 31.04,30.48l31.04 -0.33 0 -32.2c0,-16.94 -13.86,-30.8 -30.8,-30.8l-1.76 0c-0.03,0 -0.06,0 -0.09,0 -10.19,0.48 -19.11,5.95 -24.39,14 -3.24,4.92 -5.1,10.8 -5.05,17.09l0.01 1.76z"/>
   <path class="fil5" d="M365.47 168.94c-16.94,0.17 -30.91,-13.54 -31.04,-30.48l-0.01 -1.76c-0.05,-6.29 1.81,-12.17 5.05,-17.09 -0.69,0.42 -1.38,0.83 -2.06,1.22 -2.7,4.58 -4.26,9.91 -4.26,15.58l0 41.22c20.83,4.28 42.64,3.36 63.36,2.82l0 -11.84 -31.04 0.33z"/>
   <path class="fil6 str0" d="M396.51 188.11l-32.12 0.4c-16.94,0.22 -30.71,14.25 -30.61,31.19l0.01 1.76c0.11,16.94 14.06,30.63 31,30.41l31.72 -0.4 0 -63.36z"/>
   <path class="fil3" d="M396.51 188.11l0 63.36 56.83 -0.72c16.81,-0.21 30.5,-14.03 30.61,-30.8 -0.69,-0.18 -1.37,-0.38 -2.05,-0.58 -18.37,-5.48 -33.44,-16.95 -43.83,-31.79l-41.56 0.53z"/>
   <path class="fil4 str0" d="M438.07 187.58c10.39,14.84 25.46,26.31 43.83,31.79 0.68,0.2 1.36,0.4 2.05,0.58 0,-0.13 0,-0.26 0,-0.39l-0.02 -1.75c-0.02,-3.66 -0.69,-7.16 -1.89,-10.4 -6.21,-9.14 -13.82,-15.28 -22.49,-19.38 -2.13,-0.44 -4.34,-0.66 -6.61,-0.63l-14.87 0.18z"/>
   <path class="fil2 str0" d="M427.92 168.28c-6.48,-17.26 -7.63,-36.87 -2.04,-56.13 0.71,-2.47 1.52,-4.88 2.43,-7.23l-63.33 0.66c-0.37,0 -0.75,0.01 -1.12,0.03 0.03,0 0.06,0 0.09,0l1.76 0c16.94,0 30.8,13.86 30.8,30.8l0 32.2 31.41 -0.33z"/>
   <path class="fil4" d="M425.88 112.15c-5.59,19.26 -4.44,38.87 2.04,56.13l35.46 -0.37c-1.33,-3.14 -2.51,-6.39 -3.55,-9.73 -5.7,-18.29 -6.16,-36.8 -2.27,-53.57l-29.25 0.31c-0.91,2.35 -1.72,4.76 -2.43,7.23z"/>
   <path class="fil5" d="M457.56 104.61c-3.89,16.77 -3.43,35.28 2.27,53.57 1.04,3.34 2.23,6.59 3.55,9.73l21.68 -0.22c13.14,-0.14 24.37,-8.6 28.68,-20.3 -17.42,-7.31 -30.64,-23.36 -34.77,-43l-21.41 0.22z"/>
   <path class="fil3 str0" d="M478.97 104.39c4.13,19.64 17.35,35.69 34.77,43 1.25,-3.38 1.91,-7.03 1.88,-10.83l-0.01 -1.75c-0.13,-16.94 -14.09,-30.66 -31.03,-30.48l-5.61 0.06z"/>
   <path class="fil7 str0" d="M457.56 104.61c4.69,-20.22 15.71,-37.91 31.5,-49.58 1.06,-1.49 2.18,-2.92 3.36,-4.29 -28.21,5.22 -53.01,25.23 -64.11,54.18l29.25 -0.31z"/>
   <path class="fil8 str0" d="M489.06 55.03c-15.79,11.67 -26.81,29.36 -31.5,49.58l21.41 -0.22c-0.89,-4.23 -1.36,-8.63 -1.36,-13.14 0,-13.59 4.26,-26.13 11.45,-36.22z"/>
   <path class="fil9 str0" d="M333.15 309.45l0 -66.43c-0.15,-0.08 -0.3,-0.17 -0.45,-0.25 -47.51,39.07 -78.67,-2.19 -99.24,-15.75 23.9,62.98 61.09,79.18 99.69,82.43z"/>
   <path class="fil10 str0" d="M459.55 188.03c8.67,4.1 16.28,10.24 22.49,19.38 -3.62,-9.79 -12.11,-17.22 -22.49,-19.38z"/>
  </g>
 </g>
</svg>
